<svg width="32" height="32" viewBox="0 0 32 32" fill="none" xmlns="http://www.w3.org/2000/svg">
<path d="M28.25 32H3.75005C3.29405 32 2.92505 31.631 2.92505 31.175C2.92505 23.62 8.79005 17.474 16 17.474C23.21 17.474 29.0751 23.62 29.0751 31.175C29.0751 31.631 28.706 32 28.25 32ZM4.60105 30.35H27.3981C26.9951 24.088 22.037 19.124 16 19.124C9.96305 19.124 5.00505 24.088 4.60105 30.35Z" fill="#6A6A6A"/>
<path d="M15.7301 1.65C18.8971 1.65 21.4731 4.228 21.4731 7.396C21.4731 10.562 18.8971 13.138 15.7301 13.138C12.5651 13.138 9.99109 10.562 9.99109 7.396C9.99109 4.228 12.5661 1.65 15.7301 1.65ZM15.7301 0C11.6501 0 8.34009 3.316 8.34009 7.396C8.34009 11.477 11.6491 14.789 15.7301 14.789C19.8121 14.789 23.1241 11.478 23.1241 7.396C23.1241 3.316 19.8131 0 15.7301 0Z" fill="#6A6A6A"/>
</svg>
