<svg version="1.2" baseProfile="tiny" viewBox="0 0 32 32" xmlns:xlink="http://www.w3.org/1999/xlink" xmlns="http://www.w3.org/2000/svg">
<path style="fill:#ffffff;" d="M31.691,28.461L19.292,16.916C19.928,15.985,20.406,14.937,20.669,13.805H19.122C18.207,17.059,15.22,19.455,11.676,19.455C8.07,19.455,5.041,16.973,4.185,13.63H2.638C3.523,17.809,7.238,20.955,11.676,20.955C14.301,20.955,16.665,19.849,18.346,18.085L30.668,29.559C30.813,29.694,30.996,29.76,31.179,29.76C31.38,29.76,31.58,29.68,31.728,29.521C32.011,29.218,31.994,28.743,31.691,28.461Z M11.676,3.974C15.102,3.974,18.011,6.214,19.027,9.305H20.586C19.522,5.376,15.936,2.474,11.676,2.474C7.479,2.474,3.932,5.29,2.81,9.13H4.388C5.456,6.131,8.316,3.974,11.676,3.974Z M8.04802,15.294C8.20602,15.535,8.49002,15.664,8.77402,15.629C9.06002,15.591,9.30002,15.394,9.39002,15.119L11.379,9.06599L13.81,16.178C13.911,16.474,14.184,16.676,14.496,16.686C14.504,16.686,14.512,16.686,14.519,16.686C14.822,16.686,15.096,16.503,15.212,16.222L16.831,12.304H23.632C24.046,12.304,24.382,11.968,24.382,11.554C24.382,11.14,24.046,10.804,23.632,10.804H16.33C16.026,10.804,15.753,10.987,15.637,11.268L14.586,13.811L12.075,6.46299C11.971,6.15899,11.686,5.95499,11.366,5.95499C11.365,5.95499,11.363,5.95499,11.362,5.95499C11.04,5.95699,10.755,6.16499,10.654,6.47099L8.45502,13.163L7.03002,10.97C6.89102,10.757,6.65502,10.629,6.40102,10.629H0.791016C0.377016,10.629,0.0410156,10.965,0.0410156,11.379C0.0410156,11.793,0.377016,12.129,0.791016,12.129H5.99202L8.04802,15.294Z"/>
</svg>