<svg version="1.2" baseProfile="tiny" viewBox="0 0 64.438 26.12" xmlns:xlink="http://www.w3.org/1999/xlink" xmlns="http://www.w3.org/2000/svg">
<path style="fill:#ffffff;" d="M61.5048,2.1029L62.5319,1.994C63.0822,1.935,63.4792,1.4431,63.4212,0.893C63.3619,0.344,62.8651,-0.0449,62.3212,0.0039L10.2759,5.545C9.7218,3.2611,7.672,1.5531,5.2188,1.5531C2.341,1.5531,0.0,3.895,0.0,6.7719C0.0,9.649,2.341,11.9909,5.2188,11.9909C7.8312,11.9909,9.9808,10.0559,10.3597,7.5489L31.2447,5.3251C31.2389,5.3661,31.2209,5.4019,31.2209,5.445L31.2209,25.1201C31.2209,25.672,31.6681,26.12,32.2209,26.12L45.7207,26.121C46.1299,26.121,46.4978,25.8721,46.6499,25.4921C46.8013,25.112,46.7072,24.6779,46.4102,24.3961L33.2197,11.8731L33.2197,5.4439C33.2197,5.329,33.1907,5.224,33.1553,5.1211L56.0108,2.687C54.7961,3.644,54.001,5.1091,54.001,6.7711C54.001,9.6479,56.342,11.9901,59.2198,11.9901C62.0983,11.9901,64.4393,9.649,64.4393,6.7711C64.438,4.7181,63.2349,2.9539,61.5048,2.1029M33.2197,14.6301L43.2141,24.12L33.2197,24.1189L33.2197,14.6301M5.2188,9.9909C3.4442,9.9909,2.0002,8.547,2.0002,6.7719C2.0002,4.997,3.4442,3.5531,5.2188,3.5531C6.9941,3.5531,8.4382,4.997,8.4382,6.7719C8.4382,8.547,6.9928,9.9909,5.2188,9.9909M59.2198,9.9909C57.4458,9.9909,56.0011,8.547,56.0011,6.7719C56.0011,4.997,57.4452,3.5531,59.2198,3.5531C60.9951,3.5531,62.4391,4.997,62.4391,6.7719C62.4391,8.547,60.9938,9.9909,59.2198,9.9909Z"/>
</svg>