<svg version="1.2" baseProfile="tiny" viewBox="0 0 64.438 43.088" xmlns:xlink="http://www.w3.org/1999/xlink" xmlns="http://www.w3.org/2000/svg">
<path style="fill:#ffffff;" d="M61.5048,2.1031L62.5319,1.9941C63.0822,1.9351,63.4792,1.443,63.4212,0.8932C63.3619,0.3438,62.8651,-0.0431,62.3212,0.0039L10.2759,5.545C9.7218,3.26,7.672,1.5529,5.2188,1.5529C2.341,1.5529,0.0,3.8939,0.0,6.7708C0.0,9.6478,2.341,11.9901,5.2188,11.9901C7.8312,11.9901,9.9808,10.055,10.3597,7.5482L31.2221,5.327L31.2221,21.0201C25.5903,21.5259,21.1602,26.2682,21.1602,32.029C21.1602,38.1268,26.1212,43.088,32.2203,43.088C38.3187,43.088,43.2798,38.1268,43.2798,32.029C43.2798,26.269,38.8523,21.5289,33.2223,21.0201L33.2223,5.1141L56.0108,2.6878C54.7961,3.6448,54.001,5.1098,54.001,6.7721C54.001,9.6491,56.342,11.991,59.2198,11.991C62.0983,11.991,64.4393,9.65,64.4393,6.7721C64.438,4.7168,63.2349,2.9541,61.5048,2.1031M41.279,32.029C41.279,37.0238,37.2149,41.0879,32.219,41.0879C27.2231,41.0879,23.159,37.0238,23.159,32.029C23.159,27.033,27.2231,22.9689,32.219,22.9689C37.2149,22.9689,41.279,27.033,41.279,32.029M5.2188,9.99C3.4442,9.99,2.0002,8.5461,2.0002,6.7708C2.0002,4.9961,3.4442,3.5522,5.2188,3.5522C6.9941,3.5522,8.4382,4.9961,8.4382,6.7708C8.4382,8.5461,6.9928,9.99,5.2188,9.99M59.2198,9.99C57.4458,9.99,56.0011,8.5461,56.0011,6.7708C56.0011,4.9961,57.4452,3.5522,59.2198,3.5522C60.9951,3.5522,62.4391,4.9961,62.4391,6.7708C62.4391,8.5461,60.9938,9.99,59.2198,9.99Z"/>
</svg>