<svg version="1.2" baseProfile="tiny" viewBox="0 0 29.0 42.5" xmlns:xlink="http://www.w3.org/1999/xlink" xmlns="http://www.w3.org/2000/svg">
<path style="fill:#ffffff;" d="M28.0001,0.0L0.9999,0.0L0.9999,0.0C0.4469,0.0,0.0,0.448,0.0,1.0L0.0,18.1012C0.0,18.6528,0.4469,19.1012,0.9999,19.1012L13.5001,19.1012L13.5001,41.5C13.5001,42.0529,13.947,42.5,14.5,42.5C15.053,42.5,15.4999,42.0529,15.4999,41.5L15.4999,19.1012L28.0001,19.1012L28.0001,19.1012C28.5531,19.1012,29.0,18.6528,29.0,18.1012L29.0,1.0C29.0,0.448,28.5531,0.0,28.0001,0.0M26.9999,17.1012L2.0001,17.1012L2.0001,2.0001L2.0001,2.0001L26.9999,2.0001L26.9999,17.1012M18.1279,9.5812C18.4141,10.0432,18.5571,10.6131,18.5571,11.291C18.5571,11.906,18.386,12.4831,18.0441,13.0199C17.7019,13.5579,17.219,13.957,16.5941,14.218C15.9691,14.4789,15.1911,14.6098,14.2581,14.6098C12.9001,14.6098,11.8581,14.297,11.1299,13.6688C10.402,13.042,9.9679,12.127,9.8261,10.9259L11.9349,10.7211C12.062,11.4299,12.3201,11.9501,12.7069,12.2821C13.0961,12.614,13.619,12.7802,14.2779,12.7802C14.9759,12.7802,15.5031,12.6331,15.856,12.3369C16.2101,12.042,16.387,11.696,16.387,11.3012C16.387,11.047,16.3131,10.8311,16.1629,10.6531C16.015,10.475,15.754,10.3198,15.3839,10.1881C15.1299,10.1001,14.551,9.9441,13.648,9.7189C12.486,9.4312,11.6699,9.0772,11.2021,8.656C10.543,8.0661,10.2141,7.3449,10.2141,6.4961C10.2141,5.9492,10.3681,5.437,10.679,4.9619C10.989,4.485,11.4359,4.1229,12.019,3.8739C12.6031,3.6248,13.3069,3.4999,14.132,3.4999C15.4799,3.4999,16.494,3.7961,17.175,4.3868C17.857,4.978,18.214,5.7668,18.248,6.752L16.0799,6.848C15.9871,6.2959,15.7879,5.8999,15.4831,5.658C15.1769,5.4171,14.719,5.2959,14.11,5.2959C13.4801,5.2959,12.9859,5.4251,12.6309,5.6839C12.401,5.8501,12.2861,6.0728,12.2861,6.3512C12.2861,6.6049,12.3929,6.8229,12.608,7.0019C12.8809,7.2318,13.5459,7.4711,14.6,7.7201C15.6539,7.9692,16.4349,8.2271,16.9401,8.4932C17.447,8.7558,17.8431,9.1201,18.1279,9.5812Z"/>
</svg>