<svg version="1.2" baseProfile="tiny" viewBox="0 0 29.0 42.5" xmlns:xlink="http://www.w3.org/1999/xlink" xmlns="http://www.w3.org/2000/svg">
<path style="fill:#ffffff;" d="M28.0001,0.0L0.9999,0.0C0.4469,0.0,0.0,0.448,0.0,1.0L0.0,18.1012C0.0,18.6528,0.4469,19.1012,0.9999,19.1012L13.5001,19.1012L13.5001,41.5C13.5001,42.0529,13.947,42.5,14.5,42.5C15.053,42.5,15.4999,42.0529,15.4999,41.5L15.4999,19.1012L28.0001,19.1012C28.5531,19.1012,29.0,18.6528,29.0,18.1012L29.0,1.0C29.0,0.448,28.5531,0.0,28.0001,0.0M26.9999,17.1012L2.0001,17.1012L2.0001,2.0001L26.9999,2.0001L26.9999,17.1012M16.2841,3.6788L19.5361,3.6788L19.5361,14.416L17.5209,14.416L17.5209,5.964L15.3891,14.416L13.302,14.416L11.1781,5.964L11.1781,14.416L9.1649,14.416L9.1649,3.6788L12.4091,3.6788L14.357,11.0028L16.2841,3.6788Z"/>
</svg>