<svg version="1.2" baseProfile="tiny" viewBox="0 0 18.000 15.321" xmlns:xlink="http://www.w3.org/1999/xlink" xmlns="http://www.w3.org/2000/svg">
<path style="fill:#ffffff;" d="M17.294,12.125c0.399,0,0.706,0.308,0.706,0.705c0,0.398-0.307,0.736-0.706,0.736   c-0.313,0-0.56-0.179-0.671-0.43h-3.444l-0.221-0.377l-0.593,2.562l-0.603-0.03l-0.564-3.495l-0.429,1.341H8.051v-0.612h2.185   l0.707-3.804l0.595,0.003l0.64,4.692l0.357-1.672l0.552,0.021l0.444,0.759h3.096C16.739,12.285,16.985,12.125,17.294,12.125    M13.359,6.81v1.412h1.951v3.627h-1.252l-0.317-0.668h0.345V9.429h-1.658l-0.145-1.308h-0.145V6.81H4.381v1.412h1.948v4.164H1.207   V8.222h1.949V6.81H0V5.604h7.62V4.217H5.725V0h5.121v4.217H8.845v1.387h7.692V6.81H13.359z M9.623,1.206H6.948v1.802h2.675V1.206z    M2.431,11.181h2.676V9.429H2.431V11.181z"/>
</svg>