<svg version="1.2" baseProfile="tiny" id="EdgeSVG_8IVtt" x="0px" y="0px" width="35px" height="35px" viewBox="0 0 35 35" xmlns:xlink="http://www.w3.org/1999/xlink" xmlns="http://www.w3.org/2000/svg">
  <path d="M24.746,0H10.25L0,10.25v14.497L10.25,35h14.496L35,24.746V10.25L24.746,0z M34.533,24.554l-0.066,0.068l-9.913,9.911&#xD;&#xA;&#x9;H10.444l-9.977-9.979v-14.11l9.977-9.977h14.109l0.068,0.066l9.911,9.911V24.554z"/>
  <path fill="#BE1E2D" d="M24.553,0.467H10.444l-9.977,9.977v14.11l9.977,9.979h14.109l9.913-9.911l0.066-0.068v-14.11l-9.911-9.911&#xD;&#xA;&#x9;L24.553,0.467z M33.838,24.267l-9.572,9.572H10.731l-9.57-9.572V10.731l9.57-9.57h13.535l9.572,9.57V24.267z"/>
  <polygon fill="#BE1E2D" points="11.033,33.109 1.889,23.965 1.889,11.033 11.033,1.889 23.964,1.889 33.11,11.033 33.11,23.965 &#xD;&#xA;&#x9;23.964,33.109 "/>
  <path id="_x3C_STOP_x3E_" fill="#FFFFFF" d="M5.229,20.186c0.049,1.182,0.583,1.832,1.516,1.832c0.732,0,1.416-0.733,1.416-1.533&#xD;&#xA;&#x9;c0-0.266-0.083-0.634-0.2-0.916c-0.316-0.783-0.766-1.267-1.683-1.732c-1.549-0.816-1.715-0.95-2.064-1.732&#xD;&#xA;&#x9;c-0.151-0.35-0.233-0.75-0.233-1.15c0-1.565,1.216-2.815,2.748-2.815c1.465,0,2.748,1.216,2.748,2.599v0.116H7.943&#xD;&#xA;&#x9;c-0.083-0.667-0.6-1.148-1.232-1.148c-0.65,0-1.2,0.532-1.2,1.166c0,0.583,0.316,0.932,1.349,1.482&#xD;&#xA;&#x9;c1.382,0.75,1.999,1.332,2.499,2.365c0.266,0.55,0.4,1.149,0.4,1.749c0,1.715-1.35,3.098-3.015,3.098&#xD;&#xA;&#x9;c-1.783,0-3.015-1.315-3.149-3.38H5.229z M20.297,22.051c-0.649,0-1.066-0.417-1.267-1.3c-0.183-0.766-0.316-1.966-0.316-2.716&#xD;&#xA;&#x9;c0-1.066,0.167-2.48,0.383-3.247c0.217-0.767,0.649-1.166,1.233-1.166c0.3,0,0.599,0.101,0.799,0.266&#xD;&#xA;&#x9;c0.251,0.217,0.433,0.534,0.533,0.917c0.216,0.766,0.334,1.815,0.334,2.898c0,1.117-0.135,2.298-0.367,3.131&#xD;&#xA;&#x9;C21.396,21.667,20.98,22.051,20.297,22.051z M20.43,23.633c1.032-0.051,1.999-0.684,2.397-1.582c0.45-1.066,0.734-2.832,0.734-4.582&#xD;&#xA;&#x9;c0-1.832-0.335-3.38-0.95-4.314c-0.449-0.683-1.282-1.1-2.216-1.1c-1.016,0-1.932,0.483-2.365,1.267&#xD;&#xA;&#x9;c-0.533,0.933-0.849,2.715-0.849,4.763c0,0.817,0.05,1.583,0.167,2.366c0.117,0.75,0.316,1.383,0.583,1.881&#xD;&#xA;&#x9;c0.433,0.768,1.432,1.301,2.399,1.301H20.43z M26.881,13.888h1.799c0.716,0,1.115,0.55,1.115,1.533c0,1.099-0.399,1.581-1.315,1.565&#xD;&#xA;&#x9;h-1.599V13.888z M25.349,23.383h1.549v-4.832c0,0,1.715,0,1.798,0c0.467-0.049,0.851-0.116,1.133-0.233&#xD;&#xA;&#x9;c0.934-0.366,1.55-1.548,1.55-2.965c0-1.731-1.05-3.014-2.483-3.014h-3.546V23.383z M12.291,23.383h1.565v-9.711h1.999l-0.004-1.405&#xD;&#xA;&#x9;l-5.525,0.006v1.399h1.965V23.383z"/>
</svg>